<?xml version="1.0" encoding="utf-8"?>
<!-- Generator: Adobe Illustrator 23.0.3, SVG Export Plug-In . SVG Version: 6.00 Build 0)  -->
<svg version="1.1" id="Layer_1" xmlns="http://www.w3.org/2000/svg" xmlns:xlink="http://www.w3.org/1999/xlink" x="0px" y="0px"
	 viewBox="0 0 1465 316" style="enable-background:new 0 0 1465 316;" xml:space="preserve">
<style type="text/css">
	.st0{display:none;fill:#1E293B;}
	.st1{fill:url(#SVGID_1_);}
	.st2{fill:#1E293B;}
</style>
<path class="st0" d="M357,118.4c0,0-9.8-28.5-20.6-41.3c-10.6-12.7-11-20.4-12.3-23.2c-1-2.8-7.8-6.8-11.7-9.3
	c-3.7-2.5-17.7-18.1-26.1-19.5c0,0,0,3.8,3.6,12.2c2.8,6.2,7,11.4,4.9,14.8C276,83.2,276.4,97,264.2,113.4
	c-6.3,8.5-10.1,4.5-15.3,10.6c-1.7,2.2-3.1,7.4-7.5,10.4c-9.5,6.4-17.6,13.3-22.1,15.5c0,0-0.1-10.9,1.9-21.9
	c1.9-10.9,5.9-22.1,5.9-22.1s-9.7,7.4-18.4,15.2c-7.5,6.8-14.3,14-15.4,16c-2.5,4.1,5.3-32.3,10.6-44.5
	c9.2-21.2,24.7-33.1,24.7-33.1s-32.3,14.7-48.9,51.4c-16.6,36.4-17.9,73.7-9.8,91.9c8.1,18.1,21.1,37.9,15.9,38.8
	c-6,0.9-3.4-6.8-3.4-6.8s-5,2.3-3.8,7.6s6.8,3.2,6.8,3.2s3.1,2.2,4.5,1.3c1.7-0.9,4-2.8,4-2.8s2.4,3.4,5.1,2.7
	c2.7-0.6,5.2-2.3,5.2-2.3s-3.7-35.6,3.1-52.1c12.5-29.8,41-42.6,41-42.6s-8.3,39.9-16.5,49.6c-8,9.7-20.1,24.2-21.3,33.7
	c0,0,3.3-6.5,8.7-12.2c5.5-5.7,13.2-10.7,13.2-10.7s-1.3,10.8-6.9,18.1c-1.5,1.9-3.3,13.3-3.3,13.3s-2.4-2.4-3.1-0.9
	c-0.4,1.1-2.9,3.8-2.9,3.8s1.7,2.2,3.2,1.7c1.7-0.3,2.5-1.1,2.5-1.1s3.3,1.7,4.5,0.9c1.2-0.6,4.4-1.1,5.2-0.2c1,0.8,0.1-4.2-0.9-4.5
	c-1-0.4-3.1,1.8-3.1,1.8s3.4-12.2,5.6-13.5c2.3-1.4,3.1,1.7,4.5-1.4c1.5-3,8.7-22.1,12.6-21.7c3.8,0.5,15.6,11.7,14.4,15.4
	c-1,3.9-6.4,10.1-7.3,11.7c-0.8,1.7,2.2,11.8,3.8,12.2c1.7,0.5,4.8,0.8,6.4,0.3c2.9-0.9,7.2-0.4,7.8-0.2c0.5,0.3-0.8-3.6-5.1-4.8
	l-1.7,2.1l-2.8-2.7c0,0-1.7,3-3.2,1.7c-1.3-1.5-2.7-8.2-0.2-10.2c2.7-2.1,14.6-8.5,14.2-14.5c-0.3-6-15.2-20.4-10.5-31.5
	c4.6-11.4,23.9-36.5,23.9-36.5s22.7,29.3,22.2,41.6c-0.3,10.4,0.8,41-2.3,46.4c-2.8,5.3-7.8,2.1-7.7-0.9c0-2.9,3.1-4.2,3.1-4.2
	s-6.7-4.5-8.2,5.6c-0.8,4.3,2.9,6.6,6.2,6.5c4.5-0.2,13,1.4,13.3-0.9c0.4-2.3,18-42.5,20.2-47.2c2.3-4.7,12.1-37.4-0.1-67.4
	c-12.1-29.9-28.5-46.5-28.5-46.5c13.2,19.2,18,58,18,58l-9-11c0,0,1.3,9.5,0.7,17.2c-0.5,7.6-2.9,14.7-3.7,15
	c-1,0.2-6.2-10.1-9.5-18c-1.5-3.7-2.2-9-4.9-12.2c-7.1-8.5-13.3-16.9-12.5-22.4c0.8-5.3,5.2-23.2,19-33.6c1-0.7,7.5-2.1,9.9,0.5
	C339.2,98,357,118.4,357,118.4L357,118.4z"/>
<g>
	
		<linearGradient id="SVGID_1_" gradientUnits="userSpaceOnUse" x1="33" y1="407.4099" x2="330.157" y2="407.4099" gradientTransform="matrix(1 0 0 1 0 -282)">
		<stop  offset="0.4302" style="stop-color:#475569"/>
		<stop  offset="1" style="stop-color:#292524"/>
	</linearGradient>
	<path class="st1" d="M33,220c0,0,14.2-19.4,31.4-16.2c20.1,3.7,45.3,20.1,61.1,19.6c18.1-0.6,34-9.6,61.4-36.7
		c27.8-27.6,56.1-48.3,99.7-49.1c10.8-0.1,22.9-27.9,23.9-35.6c2.5-19.1,2.4-40.7-2.7-51.9c-10.2-22.5-30.9-42.4-59.9-24.5
		c-2.8,1.8-1.3,5.7-11,10.9c-9.6,5.3-8.4,6.8-10.8,2.5c-2.5-4.2,3.9-7.7,4.4-12.3s2.4-7.3,8.7-10.4c6.3-3,23.4-14.8,41.3-9.8
		c18,4.8,44.8,24.8,48.9,74.1c5.4,65.3-19.8,93.9-21.5,110.6c-1.6,16.9,1.5,19.9,1,36.1c-0.3,7.1,5.4,15.2,4,17.3
		c-1.3,2-15,0.7-15.9-2.9c-2.1-7.6,2.5-16.1-5.1-32.1c-2.1-4.5-4.4,0.2-5.7,13c-1.5,15.1-1.6,12.7,1.4,21.7
		c0.6,1.6-12.2,0.9-13.9-2.1c-1.7-3,0.9-21.5-1.4-31l-5.2,0.7c-0.6,6.3-0.1,22.4,1.5,25.3c1.5,2.9,3.9,5.9,2.1,6.3
		c-3.1,0.5-13.9,0.5-14.8-1.5c-0.9-1.9,0.7-19-6.3-29.6c-2-2.8-4.9-1.1-4.9-1.1c-2.5,6.5-7.4,15.9-6.8,24c0.5,6.5,2,6.7,1.3,8.1
		s-14.2,2.1-15.8-1c-1.6-3-2.1-16.1,2.8-32.6c0,0-11.6-1.8-24.7,5.3c-23.5,12.5-43.7,22.6-61,24.8c-30.9,3.9-51.1-23.3-78.1-27.9
		C46.1,209.1,33,220,33,220L33,220z"/>
</g>
<path class="st2" d="M507.1,90.5c-3.3-6.2-7.8-11.3-13.3-15.3c-5.7-4-12.1-6.9-19-8.7s-13.3-2.7-19.2-2.7H401l-2.9,20.5h11.7
	L390,225.2h-11.6l-2.9,20.5h62.9l2.9-20.5h-29.6l8.3-60.6h28.3c17.7,0,31.8-4.6,42.5-13.9c10.7-9.3,17.1-21.8,19.4-37.6
	C511.4,104.3,510.4,96.7,507.1,90.5z M488.5,113.1c-0.6,3.3-1.7,6.8-3.3,10.4c-1.6,3.7-4.1,7-7.4,9.9c-3.5,2.9-7.8,5.4-13,7.4
	s-11.6,3-19.2,3h-22.5l8.3-59.5h22.9c5.4,0,10.3,0.7,14.8,2.3c4.5,1.5,8.3,3.6,11.4,6.2c2.9,2.8,5.1,5.9,6.6,9.4
	C488.5,105.6,489,109.3,488.5,113.1z M568.7,100.7c2.4,2.6,3.4,5.9,2.9,9.9c-0.7,4-2.6,7.2-5.7,9.8c-3.1,2.5-6.3,3.8-9.6,3.8
	c-3.5,0-6.4-1.3-8.8-3.8c-2.4-2.5-3.3-5.8-2.6-9.8c0.3-4,2.1-7.3,5.3-9.9c3.1-2.6,6.4-3.9,9.9-3.9
	C563.4,96.8,566.3,98.1,568.7,100.7z M552.5,225.3h17.9l-2.9,20.5h-57.7l2.9-20.5l18.2-0.1l7.8-56.4h-18.2l2.9-20.5h39.8
	L552.5,225.3z M685.4,169.3l-66.3,55.4h45.2l2.1-14.8h19.2l-4.9,35.8h-94.9l2.9-21.1l66.3-55.9h-55.4l4.2-29.6H623l-1.3,9.1h66.6
	L685.4,169.3z M798.5,169.3l-66.3,55.4h45.2l2.1-14.8h19.2l-4.9,35.8h-94.9l2.9-21.1l66.3-55.9h-55.4l4.2-29.6h19.2l-1.3,9.1h66.6
	L798.5,169.3z M930,148.1h-17.8c-0.3,2-0.8,4.1-1.3,6.2c-0.5,2.1-1,4.1-1.3,6c0-0.5-0.7-1.7-2.2-3.5s-3.6-3.6-6.4-5.3
	c-2.8-1.5-6.1-2.9-9.8-4s-7.9-1.7-12.6-1.7c-7.3,0-14.3,1.4-21.1,4.2s-12.8,6.5-18.2,11.2s-9.8,10.2-13.4,16.4
	c-3.6,6.3-5.9,12.8-6.9,19.6c-1,6.9-0.6,13.4,1.3,19.6c1.9,6.1,4.8,11.5,8.8,16.2c4,4.6,9,8.3,15.1,11c6,2.7,12.7,4,20,4
	c5,0,9.6-0.6,13.8-1.7c4.2-1.1,7.8-2.4,10.7-4c2.9-1.4,5.3-2.8,7-4.2s2.8-2.4,3.1-2.9c-0.2,0.8-0.3,1.6-0.4,2.3
	c-0.1,0.7-0.2,1.7-0.4,2.9l-0.5,5.2h38.7l2.9-20.5h-19.8L930,148.1z M901.8,197.1c-0.5,4.2-1.8,8.1-3.8,11.7c-2,3.7-4.6,6.8-7.7,9.4
	c-3.1,2.8-6.6,4.9-10.5,6.5c-3.9,1.5-8.1,2.3-12.6,2.3c-3.8,0-7.3-0.6-10.4-1.7c-3.2-1.1-5.8-2.6-8.1-4.5c-3.2-2.8-5.4-6.2-6.8-10.4
	c-1.4-4.2-1.8-8.7-0.9-13.6c0.5-4.4,1.8-8.4,3.8-12c2-3.7,4.6-6.8,7.7-9.4c3.1-2.7,6.6-4.8,10.5-6.2s8.1-2.1,12.6-2.1
	c4.3,0,8.2,0.7,11.8,2.1c3.5,1.4,6.4,3.4,8.7,6c2.4,2.6,4.2,5.8,5.2,9.5C902.3,188.5,902.5,192.6,901.8,197.1z M1032,156.7
	l-3.4,22.6h-19.2l1.8-11.2c-1.2-0.3-2.5-0.6-3.9-0.9c-1.4-0.3-2.7-0.4-3.9-0.4c-1.7,0-3.3,0.2-4.7,0.5s-2.6,0.9-3.6,1.6
	c-1,0.9-1.9,1.9-2.5,3s-0.9,2.5-0.9,4c0,2.1,1,3.8,3.1,5.1s4.6,2.6,7.5,3.8s6,2.6,9.2,4.2c3.2,1.6,6.1,3.5,8.7,5.7
	c2.6,2.4,4.6,5.4,6,9s1.7,8,1,13.4c-0.3,2.4-1.2,5.4-2.6,8.8c-1.4,3.5-3.6,6.8-6.5,10.1c-2.8,3.3-6.5,6.1-11.2,8.3
	c-4.7,2.3-10.5,3.4-17.4,3.4c-6.4,0-12.5-0.8-18.2-2.5c-5.7-1.6-10.1-4.4-13-8.2l3.4-22.5H981l-1.3,10.1c1.9,0.9,3.9,1.4,5.8,1.7
	c2,0.3,4.5,0.4,7.4,0.4c1.2,0,2.5-0.2,3.9-0.5s2.8-1,4.2-1.8c1.6-0.9,2.7-1.8,3.4-2.9c0.7-1,1.1-2.4,1.3-4.2c0.3-2.9-0.3-5.3-1.8-7
	c-1.6-1.7-3.8-3.1-6.8-4.2c-2.8-1.2-5.9-2.4-9.5-3.5s-6.8-2.7-9.8-4.8c-2.8-1.9-4.9-4.7-6.5-8.3s-1.9-8.5-1-14.6
	c0.7-5.4,2.3-9.9,4.9-13.5c2.6-3.6,5.6-6.6,9.1-8.8c3.5-2.4,7.1-4.2,10.9-5.2c3.8-1,7.2-1.6,10.1-1.6c1.7,0,3.8,0.2,6.2,0.5
	s4.9,1,7.3,1.8c2.6,0.9,5.1,2,7.4,3.4C1028.5,152.9,1030.5,154.6,1032,156.7z M1158.6,148.1h-17.9c-0.3,2-0.8,4.1-1.3,6.2
	c-0.5,2.1-1,4.1-1.3,6c0-0.5-0.7-1.7-2.2-3.5s-3.6-3.6-6.4-5.3c-2.8-1.5-6.1-2.9-9.8-4c-3.7-1.1-7.9-1.7-12.6-1.7
	c-7.3,0-14.3,1.4-21.1,4.2c-6.8,2.8-12.8,6.5-18.2,11.2s-9.8,10.2-13.4,16.4c-3.5,6.3-5.8,12.8-6.9,19.6c-1,6.9-0.6,13.4,1.3,19.6
	c1.9,6.1,4.8,11.5,8.8,16.2c4,4.6,9,8.3,15.1,11c6,2.7,12.7,4,20,4c5,0,9.6-0.6,13.8-1.7c4.2-1.1,7.8-2.4,10.7-4
	c2.9-1.4,5.3-2.8,7-4.2s2.8-2.4,3.1-2.9c-0.2,0.8-0.3,1.6-0.4,2.3s-0.2,1.7-0.4,2.9l-0.5,5.2h38.8l2.9-20.5h-19.8L1158.6,148.1z
	 M1130.3,197.1c-0.5,4.2-1.8,8.1-3.8,11.7c-2,3.7-4.6,6.8-7.7,9.4c-3.1,2.8-6.6,4.9-10.5,6.5c-3.9,1.5-8.1,2.3-12.6,2.3
	c-3.8,0-7.3-0.6-10.4-1.7c-3.2-1.1-5.8-2.6-8.1-4.5c-3.2-2.8-5.4-6.2-6.8-10.4s-1.7-8.7-0.9-13.6c0.5-4.4,1.8-8.4,3.8-12
	c2-3.7,4.6-6.8,7.7-9.4c3.1-2.7,6.6-4.8,10.5-6.2s8.1-2.1,12.6-2.1c4.3,0,8.2,0.7,11.8,2.1c3.5,1.4,6.4,3.4,8.7,6
	c2.4,2.6,4.2,5.8,5.2,9.5C1130.8,188.5,1131,192.6,1130.3,197.1z M1299.5,227.5h16.1l-2.6,18.2h-37.7l1.8-13.2l2.3-11.7
	c-4.7,8.3-11.2,15-19.5,19.9s-17.2,7.4-26.5,7.4c-10.2,0-17.9-2.7-23.1-8.1c-5.2-5.4-7.4-12.4-6.5-21.1l7-50.2h-17.2l2.9-20.5h38.7
	l-8.3,60.8c-0.3,4.7,0.7,8.7,3.3,12.1c2.5,3.4,7.1,5.2,13.7,5.6c4.5,0,8.9-0.8,13.3-2.3c4.3-1.6,8.2-3.7,11.7-6.5s6.4-6.1,8.8-9.9
	s4-8,4.7-12.5l3.6-26.8h-17.2l2.9-20.5h38.7L1299.5,227.5z M1422.6,145.9l-4.4,21.3c-5.2,0-10.1,0.8-14.7,2.3
	c-4.6,1.6-8.6,3.7-12.1,6.5s-6.3,6.1-8.4,9.9c-2.2,3.8-3.6,8-4.3,12.5l-3.6,26.8h16.4l-2.9,20.5h-57.7l2.9-20.5h19.7l7.8-56.4h-17.2
	l2.9-20.5h36.1l-0.3,2.3c-0.3,4.2-0.6,7.9-0.6,11.3c-0.1,3.4-0.3,7.2-0.7,11.3c2.6-4.3,5.8-8.2,9.5-11.6c3.7-3.4,7.5-6.3,11.3-8.7
	c3.8-2.3,7.5-4,11.1-5.2C1416.9,146.5,1420,145.9,1422.6,145.9z"/>
</svg>
