<?xml version="1.0" encoding="utf-8"?>
<!-- Generator: Adobe Illustrator 23.0.3, SVG Export Plug-In . SVG Version: 6.00 Build 0)  -->
<svg version="1.1" id="Layer_1" xmlns="http://www.w3.org/2000/svg" xmlns:xlink="http://www.w3.org/1999/xlink" x="0px" y="0px"
	 viewBox="0 0 1393.9 421" style="enable-background:new 0 0 1393.9 421;" xml:space="preserve">
<style type="text/css">
	.st0{display:none;}
	.st1{display:inline;fill:#FFFFFF;}
	.st2{display:inline;}
	.st3{fill:#F4F4F5;}
	.st4{display:none;enable-background:new    ;}
	.st5{font-family:'BrushScriptMT';}
	.st6{font-size:329.4162px;}
	.st7{fill:none;}
</style>
<g class="st0">
	<rect x="-21" y="-187" class="st1" width="1153.3" height="917"/>
	<g class="st2">
		<path d="M170.5,329.1c0,0,32.4-41.8,71.7-35c45.9,7.9,103.4,43.4,139.6,42.3c41.4-1.4,77.6-20.6,140.3-79.2
			c63.4-59.4,128.2-104.2,227.8-105.8c24.7-0.3,52.2-60.2,54.6-76.8c5.6-41.2,5.4-87.7-6.1-111.8c-23.2-48.6-70.6-91.5-136.7-52.9
			c-6.5,3.8-2.9,12.2-25.2,23.6c-22,11.4-19.1,14.7-24.7,5.4c-5.8-9,8.8-16.6,10.1-26.6s5.4-15.7,19.8-22.5
			c14.4-6.5,53.5-31.8,94.4-21.2c41.1,10.3,102.3,53.5,111.7,159.8c12.4,140.8-45.2,202.4-49,238.5c-3.6,36.4,3.4,42.9,2.2,77.9
			c-0.7,15.2,12.4,32.8,9.2,37.2c-2.9,4.3-34.2,1.6-36.4-6.2c-4.7-16.3,5.8-34.7-11.7-69.2c-4.9-9.8-10.1,0.5-13,28
			c-3.4,32.6-3.6,27.4,3.1,46.7c1.3,3.5-27.9,1.9-31.7-4.6s2-46.4-3.1-66.8l-11.9,1.6c-1.3,13.6-0.2,48.3,3.4,54.5
			c3.4,6.2,8.8,12.8,4.7,13.6c-7,1.1-31.7,1.1-33.7-3.3c-2-4.1,1.6-41-14.4-63.8c-4.5-6-11.2-2.4-11.2-2.4
			c-5.6,14.1-16.9,34.2-15.5,51.8c1.1,14.1,4.5,14.4,2.9,17.4s-32.4,4.6-36-2.2c-3.6-6.5-4.7-34.7,6.5-70.3c0,0-26.5-3.8-56.4,11.4
			c-53.7,26.9-99.8,48.8-139.2,53.5c-70.6,8.4-116.7-50.2-178.3-60.2C200.4,305.5,170.5,329.1,170.5,329.1L170.5,329.1z"/>
	</g>
</g>
<g>
	<path class="st3" d="M510.2,140.6c-2.5-7.2-5.9-13.3-10.4-18.3c-12.5-14.2-35-21.2-67.4-21.2c-28,0-60.3,6.7-96.9,20.1
		c-6.6,11-12.3,21.4-17.2,31c-4.9,9.7-7.3,14.9-7.3,15.8c0,0.8,0.4,1.4,1.1,1.9s1.5,0.8,2.2,0.8c2.9-1.2,7.8-3.2,14.5-6
		s14.4-5.8,23-9s18.9-6.1,30.9-8.9c12-2.8,23.5-4.4,34.3-4.8l-47.8,73.2c-14.5,3.3-25.5,7.8-32.9,13.5s-11.1,11.8-11.1,18.5
		c0,3,1.4,6.1,4.1,9.2s6.5,5.6,11.4,7.6c-9.2,16.9-16.1,30.5-20.6,40.8c-4.5,10.2-6.8,17.7-6.8,22.4c0,3.3,0.4,5.9,1.3,7.8
		c0.8,1.9,2.8,2.8,5.8,2.8c1.5,0,3-0.6,4.5-1.9s2.9-2.8,4.1-4.5s3.5-5.2,7-10.5c3.4-5.3,6.2-9.5,8.3-12.7c1.5-2.3,2.2-5,2.2-8.4
		c0-1.4-0.7-3.2-2.2-5.5l14.1-26.4c10.7,1.3,17.7,1.9,21.2,1.9c19.5,0,37.5-2.5,53.9-7.6s30.7-12.5,42.8-22.1
		c12.1-9.7,21.5-21,28-34.2c6.5-13.1,9.8-27.7,9.8-43.8C513.9,155,512.7,147.8,510.2,140.6z M491.6,187.2c-3.6,7.5-9.3,15-17.2,22.4
		c-7.9,7.5-18.6,13.7-32,18.7s-29.3,7.6-47.6,7.6c-2.1,0-4.7-0.1-7.8-0.3c-3.1-0.2-6.6-0.4-10.6-0.6l8.9-15.4l23.8-4.7
		c2.7-0.5,4.1-1.5,4.1-2.9c0-1.6-0.8-2.4-2.5-2.4l-20.5,2.4l27.3-43.9c5.7-9.1,8.6-16.5,8.6-22c0-1.7-0.1-3.2-0.3-4.3
		c16.1,0,29.2,0.7,39.4,2.2c10.2,1.4,18,4.2,23.4,8.1c5.4,4,8.2,9.4,8.2,16.4C497,173.4,495.2,179.7,491.6,187.2z"/>
	<path class="st3" d="M563.7,185.1c2.4,2,4.8,3.1,7.4,3.1c4.9,0,9.5-2.8,13.8-8.4c4.3-5.6,6.4-10.7,6.4-15.3c0-3.8-1-6.6-3.1-8.6
		s-4.7-3-7.8-3c-4.7,0-9.3,2.9-13.6,8.7c-4.4,5.8-6.6,11-6.6,15.8C560.2,180.5,561.3,183,563.7,185.1z"/>
	<path class="st3" d="M1319.8,279.6c-6.1,0-9.1-2.5-9.1-7.6c0-3.6,1.9-9.1,5.6-16.2c3.8-7.2,8.4-13.8,14-19.9c4.7-5,8-8.9,10-11.5
		c1.9-2.6,2.9-5.1,2.9-7.3c0-3.5-0.6-7.1-1.7-10.6c-1.2-3.5-2.6-5.8-4.4-6.8c-0.8-0.4-2.4-0.6-4.5-0.6c-5.6,0-19.2,1.7-40.8,5.1
		c3.2-5.6,4.9-9.3,4.9-11.1c0-2-1-3.1-3.1-3.1c-1.4,0-2.8,0.4-4.2,1.1c-3.8,1.5-7.9,4.8-12.5,10c-4.6,5.1-8.5,10.7-11.6,16.6
		c-3.1,5.9-4.7,10.8-4.7,14.6c0,3.4,0.8,6,2.3,7.7s3.9,3.2,7.3,4.3c-2.9,4.8-7.2,10.7-12.9,17.5v0.1c-8.2,6.5-14.5,11.2-18.7,13.9
		c-4.7,3-8.8,4.5-12.4,4.5c-4.3,0-6.4-2.8-6.4-8.4c0-2.6,1.1-6.4,3.3-11.5c2.2-5.1,4.8-9.8,7.7-14.1c5.4-8,10.1-15,14.1-20.9
		s6.6-9.9,7.9-12.1c1.3-2.2,2.2-4,2.6-5.4s0.6-3.2,0.6-5.5c0-4.9-0.4-8.2-1.3-9.8s-2.6-2.4-5.1-2.4c-2.6,0-5.3,1.3-8.2,3.8
		c-2.8,2.5-8.1,8-15.8,16.3c-3.3,3.6-7.7,9.1-13.1,16.3s-10.1,12.7-14.2,16.3c-5.5,4.8-11.8,10.4-18.7,16.6
		c-7,6.3-11.9,10.5-14.8,12.7s-5,3.3-6.3,3.3c-3.5,0-5.2-2.3-5.2-6.9c0-3.3,1-8.1,3-14.5c9-7,16.9-14.1,23.8-21.3
		c6.8-7.2,11.8-13.4,14.9-18.4s4.6-8.5,4.6-10.5c0-1-1.5-1.9-4.5-2.8c-3-0.9-6.2-1.4-9.6-1.4c-4.6,0-7.9,0.5-10,1.4
		c-2,0.9-4.1,2.7-6.3,5.2c-2.1,2.6-4.8,5.7-7.9,9.5c-5.2,6.1-9.6,11.6-13.3,16.4c-3.6,4.8-6.5,9.3-8.7,13.4
		c-2.2,4.1-3.7,7.9-4.5,11.3c-0.4,1.7-0.7,3.5-0.9,5.4c-14.2,12.5-24.8,18.7-31.7,18.7c-7.1,0-10.7-4-10.7-11.9
		c0-4.8,1-8.9,3.1-12.2c2-3.3,5.6-8.5,10.7-15.5s7.6-11.8,7.6-14.4c0-1.3-0.3-2.8-0.9-4.4c-0.6-1.7-1.5-3.8-2.7-6.5
		s-2.1-4.9-2.8-6.6c3.7-1.3,6.2-2.4,7.7-3.3c1.5-0.9,2.2-2.3,2.2-4.3c0-1.2-0.5-3-1.6-5.5s-2.6-4.6-4.5-6.5s-3.9-2.8-6.1-2.8
		c-8.2,0-19.7,3.6-34.7,10.8s-30.4,18.2-46.3,33c-6,5.8-10.3,10.5-13,14s-4.5,7-5.5,10.4c-0.5,1.7-0.8,3.6-1.1,5.7
		c-6.1,5.2-11.6,9.5-16.3,12.8c-5.2,3.7-10.2,6.7-15.2,8.8c-5,2.2-9.6,3.3-13.9,3.3c-2.2,0-5.2-0.3-8.9-1
		c9.4-6.2,17.1-12.3,23.1-18.3s10.5-12.2,13.6-18.7s4.7-13.3,4.7-20.3c0-4.7-0.4-9-1.3-12.7c-0.8-3.8-2-8.4-3.5-13.9
		s-2.3-9.3-2.3-11.3c0-2.4,0.2-4.2,0.6-5.5l-0.9-3.1c-2.5-1.3-4.9-1.9-7.1-1.9c-8.8,0-14.3,6.6-16.6,19.8
		c-10.1,11.7-28.7,32.1-55.7,61.3v1.5c-14.5,12.8-25.3,19.3-32.3,19.3c-7.1,0-10.7-4-10.7-11.9c0-4.8,1-8.9,3.1-12.2
		c2-3.3,5.6-8.5,10.7-15.5c5.1-7,7.6-11.8,7.6-14.4c0-1.3-0.3-2.8-0.9-4.4c-0.6-1.7-1.5-3.8-2.7-6.5s-2.1-4.9-2.8-6.6
		c3.7-1.3,6.2-2.4,7.7-3.3c1.5-0.9,2.2-2.3,2.2-4.3c0-1.2-0.5-3-1.6-5.5s-2.6-4.6-4.5-6.5s-3.9-2.8-6.1-2.8
		c-8.2,0-19.7,3.6-34.7,10.8s-30.4,18.2-46.3,33c-6,5.8-10.3,10.5-13,14s-4.5,7-5.5,10.4c-0.5,1.6-0.8,3.4-1,5.4L735.5,291
		c-1.9-6.9-4.1-12-6.7-15.3c-2.6-3.3-6.7-6.3-12.3-9c8.2-6.6,14.8-11.8,19.9-15.5s10.7-7.5,16.7-11.5s9.7-6.6,11-8
		c1.3-1.3,2-2.8,2-4.3c0-1.6-1.1-8.5-3.3-20.8c-0.8-4.6-2.5-6.9-4.9-6.9c-2.9,0-8.3,1.1-16.2,3.3s-14.5,3.3-19.7,3.3
		c-1.7,0-2.5-0.5-2.5-1.6c0-1.3,0.4-2.2,1.3-2.7c0.6-0.3,0.9-1.1,0.9-2.3c0-2.9-1.7-4.3-5.2-4.3c-3,0-7.2,2.1-12.5,6.3
		s-9.9,8.9-13.8,14.2s-5.9,9.5-5.9,12.9c0,4,2.9,6.4,8.8,7.2c-5.3,9.8-10.5,17.7-15.6,23.7L638.6,291c-1.9-6.9-4.1-12-6.7-15.3
		c-2.6-3.3-6.7-6.3-12.3-9c8.2-6.6,14.8-11.8,19.9-15.5s10.7-7.5,16.7-11.5s9.7-6.6,11-8c1.3-1.3,2-2.8,2-4.3
		c0-1.6-1.1-8.5-3.3-20.8c-0.8-4.6-2.5-6.9-4.9-6.9c-2.9,0-8.3,1.1-16.2,3.3s-14.5,3.3-19.7,3.3c-1.7,0-2.5-0.5-2.5-1.6
		c0-1.3,0.4-2.2,1.3-2.7c0.6-0.3,0.9-1.1,0.9-2.3c0-2.9-1.7-4.3-5.2-4.3c-3,0-7.2,2.1-12.5,6.3s-9.9,8.9-13.8,14.2
		s-5.9,9.5-5.9,12.9c0,4,2.9,6.4,8.8,7.2c-6.1,11.2-12,19.8-17.7,26.1v0.6c-7.9,6.7-14.5,11.7-19.7,15c-5.9,3.7-11.3,5.5-16.2,5.5
		c-4.5,0-8.2-1.3-11-3.9s-4.2-5.8-4.2-9.7c0-4.5,1.4-8.5,4.2-12.1c2.8-3.5,8.7-9.8,17.8-18.8c3.2-3.1,6.9-8.3,11.1-15.6
		c4.1-7.3,6.2-12.7,6.2-16.1c0-5-3.2-7.6-9.6-7.6c-12.3,0-25.9,11.9-40.8,35.5c-3.1,5.3-5.3,9.1-6.4,11.6c-1.2,2.5-2.1,5.6-3,9.4
		c-0.8,3.8-1.3,7.8-1.3,12c0,10.9,2.1,21,6.3,30.2s10.6,13.8,19.1,13.8c6.2,0,13.6-3.4,22.4-10.2s18.2-16.9,28.4-30.3v-1.2
		c2.7-3.1,5.7-6.9,9.1-11.5c4.8-6.5,9.9-14.2,15.2-22.8c7.6-0.6,15.7-1.7,24.1-3.3c8.5-1.6,15.8-3,22.1-4.3
		c-39.2,27.9-58.8,43.9-58.8,48.1c0,3.8,2.8,6.6,8.4,8.4c5.6,1.9,9.7,3.8,12.5,5.6c2.7,1.9,4.7,6.6,5.8,14.2
		c-11.9,8.4-21.5,15.5-28.6,21.3c-7.2,5.8-13.3,11.6-18.3,17.2s-8.9,11.3-11.6,17c-2.7,5.7-4,11.7-4,18c0,4.4,0.7,7.7,2,10.1
		c1.4,2.3,3.8,3.5,7.2,3.5c3.6,0,9.2-2.7,16.9-8.1s15.5-12.4,23.4-20.8c7.8-8.5,14.7-18,20.6-28.6s9.4-21.1,10.4-31.4l37.2-30.7v1.8
		c3.5-3.5,7.6-8.6,12.4-15.1s9.9-14.2,15.2-22.8c7.6-0.6,15.7-1.7,24.1-3.3c8.5-1.6,15.8-3,22.1-4.3c-39.2,27.9-58.8,43.9-58.8,48.1
		c0,3.8,2.8,6.6,8.4,8.4c5.6,1.9,9.7,3.8,12.5,5.6c2.7,1.9,4.7,6.6,5.8,14.2c-11.9,8.4-21.5,15.5-28.6,21.3
		c-7.2,5.8-13.3,11.6-18.3,17.2s-8.9,11.3-11.6,17c-2.7,5.7-4,11.7-4,18c0,4.4,0.7,7.7,2,10.1c1.4,2.3,3.8,3.5,7.2,3.5
		c3.6,0,9.2-2.7,16.9-8.1s15.5-12.4,23.4-20.8c7.8-8.5,14.7-18,20.6-28.6s9.4-21.1,10.4-31.4l37.6-31.1c0.4,5.6,1.7,11.1,3.8,16.4
		c2.7,6.5,5.7,11.8,9.2,15.8c3.5,4.1,6.3,6.1,8.6,6.1c4.8,0,10.9-3.7,18.3-11c7.4-7.3,18.8-19.7,34-37.1c-6,16.1-8.9,28.4-8.9,36.8
		c0,5.4,0.9,9.4,2.6,12.1c1.7,2.7,4.6,4.1,8.7,4.1c11.1,0,29.4-14.4,54.9-43.1c0.3,4.5,0.8,8.4,1.6,11.5c1.2,4.7,4.3,9.7,9.2,14.8
		c8.4,8.6,17.5,12.9,27.3,12.9c7.6,0,16.7-3.5,27.3-10.4c10-6.6,21.3-16.1,33.9-28.5c0.4,5.5,1.7,10.8,3.8,15.9
		c2.7,6.5,5.7,11.8,9.2,15.8c3.5,4.1,6.3,6.1,8.6,6.1c4.8,0,10.9-3.7,18.3-11s18.8-19.7,34-37.1c-6,16.1-8.9,28.4-8.9,36.8
		c0,5.4,0.9,9.4,2.6,12.1s4.6,4.1,8.7,4.1c11,0,29-14,53.9-42c0.3,4.9,1.2,9.5,2.6,13.9c1.8,5.7,4.4,10.3,7.8,13.7
		c3.3,3.4,7,5.1,11,5.1c5,0,11.5-4.3,19.4-13s19.4-23.3,34.6-43.9c-5.9,13.1-10.1,23.1-12.7,30s-3.9,12.4-3.9,16.5
		c0,10.7,4.4,16.1,13.2,16.1c3.9,0,7.9-1.3,12.2-4c4.3-2.7,9.4-6.6,15.2-11.9c5.9-5.3,14.9-13.7,27.1-25.3v-0.8
		c10.9-10.1,19.3-21.3,25.2-33.5c2.2-0.4,5.3-1,9.4-1.8c4.1-0.7,7.9-1.5,11.6-2.2s7-1.4,9.9-2c-5.5,6.9-10.5,13.8-15,20.7
		c-4.4,6.9-7.8,13.3-10.1,19.2c-2.3,5.9-3.5,11.2-3.5,15.8c0,7.8,1.5,13.8,4.4,17.9s6.6,6.2,11,6.2c3.8,0,8-1.6,12.9-4.7
		c4.8-3.2,10-7.4,15.7-12.8c5.6-5.4,12.8-12.7,21.5-22v-10.8C1337.2,273,1326.1,279.6,1319.8,279.6z M606.3,347.1
		c-5.6,8-11.4,14.1-17.4,18.4s-10.8,6.4-14.6,6.4c-2.1,0-3.1-1.2-3.1-3.7c0-1.3,2.5-4.9,7.6-10.9s11.1-12.4,18.1-19.1
		s14.3-12.7,21.8-18.1C616,330.2,611.9,339.1,606.3,347.1z M703.2,347.1c-5.6,8-11.4,14.1-17.4,18.4s-10.8,6.4-14.6,6.4
		c-2.1,0-3.1-1.2-3.1-3.7c0-1.3,2.5-4.9,7.6-10.9s11.1-12.4,18.1-19.1s14.3-12.7,21.8-18.1C712.9,330.2,708.8,339.1,703.2,347.1z
		 M834.9,257.1c-9.1,10.7-19.1,19.3-30.1,26c-2.9,1.5-5,2.3-6.1,2.3c-2,0-3.6-1.1-4.7-3.3c-1.2-2.2-1.7-5-1.7-8.4
		c0-9.4,5.8-18.6,17.3-27.5c11.6-8.9,30.9-19.7,58.1-32.5C854.9,231.9,844,246.4,834.9,257.1z M940.6,279
		c-4.2-6.8-7.4-11.3-9.7-13.7s-6.6-4.2-12.9-5.6c21.2-21.3,35.1-35.8,41.6-43.3l2.8,23.5c0.1,0.9,0.2,1.7,0.2,2.6
		c0.1,0.9,0.1,1.8,0.1,2.9c0,9-1.9,16.1-5.7,21.3C953.1,271.9,947.7,276,940.6,279z M1065.4,257.1c-9.1,10.7-19.1,19.3-30.1,26
		c-2.9,1.5-5,2.3-6.1,2.3c-2,0-3.6-1.1-4.7-3.3c-1.2-2.2-1.7-5-1.7-8.4c0-9.4,5.8-18.6,17.3-27.5c11.6-8.9,30.9-19.7,58.1-32.5
		C1085.4,231.9,1074.5,246.4,1065.4,257.1z"/>
</g>
<text transform="matrix(0.9749 0 0 1 31.6035 582.6934)" class="st4 st5 st6">Pizzasaur</text>
<rect x="110.3" y="464.4" class="st7" width="18.3" height="65.1"/>
<path class="st3" d="M279.3,156.6c0,0-12.4-40.3-25.8-58.3c-13.3-18-13.9-28.8-15.4-32.8c-1.3-4-9.9-9.6-14.6-13.2
	c-4.7-3.5-22.1-25.6-32.7-27.6c0,0,0,5.4,4.5,17.2c3.6,8.7,8.7,16.2,6.1,21c-23.5,44-23.1,63.6-38.5,86.7c-7.9,12-12.8,6.4-19.2,15
	c-2.3,3-3.8,10.4-9.5,14.7c-11.9,9-22,18.8-27.7,22c0,0-0.1-15.5,2.4-31.1c2.4-15.5,7.4-31.3,7.4-31.3s-12.2,10.4-23.1,21.5
	c-9.5,9.6-17.9,19.7-19.3,22.4c-3.2,5.7,6.7-45.6,13.4-63c11.6-29.9,31-46.6,31-46.6S77.7,94,56.9,145.7
	c-20.7,51.5-22.4,104.2-12.3,129.7s26.5,53.6,19.9,54.7c-7.6,1.3-4.3-9.8-4.3-9.8s-6.3,3.3-4.8,10.8c1.5,7.4,8.5,4.5,8.5,4.5
	s3.8,3,5.7,1.8c2.1-1.3,5.1-3.9,5.1-3.9s3.1,4.7,6.5,3.8c3.4-0.9,6.6-3.2,6.6-3.2s-4.6-50.3,3.8-73.5c15.6-42.2,51.3-60.3,51.3-60.3
	s-10.4,56.4-20.6,70.1c-10.1,13.7-25.1,34.2-26.6,47.7c0,0,4.1-9.1,11-17.2c6.9-8,16.5-15.1,16.5-15.1s-1.6,15.3-8.6,25.6
	c-1.9,2.7-4.2,18.8-4.2,18.8s-3.1-3.4-3.8-1.3c-0.6,1.6-3.7,5.4-3.7,5.4s2.1,3.1,4,2.5c2.1-0.4,3.2-1.6,3.2-1.6s4.1,2.3,5.6,1.3
	c1.5-0.9,5.4-1.6,6.6-0.3c1.3,1.1,0.1-5.8-1.1-6.4s-3.8,2.6-3.8,2.6s4.3-17.2,7-19.2c2.8-2,3.8,2.4,5.6-1.9
	c1.9-4.4,11-31.3,15.9-30.6c4.9,0.7,19.5,16.5,18,21.9c-1.3,5.5-8.2,14.1-9.2,16.5c-1,2.3,2.7,16.6,4.9,17.2c2.2,0.7,6,1.1,8.2,0.4
	c3.7-1.4,9.1-0.6,9.8-0.2s-0.9-5.1-6.5-6.8l-2.3,2.9l-3.5-3.8c0,0-2.2,4.4-4,2.3c-1.6-2.1-3.4-11.6-0.2-14.3
	c3.4-2.9,18.2-12.1,17.7-20.5s-18.9-28.8-13.1-44.5c5.7-15.8,29.8-51.3,29.8-51.3s28.4,41.4,27.9,58.7c-0.4,14.8,1,57.9-2.8,65.5
	c-3.6,7.4-9.8,2.9-9.7-1.4c0-4.3,3.8-5.8,3.8-5.8s-8.4-6.4-10.3,7.9c-0.9,6.1,3.7,9.4,7.8,9.2c5.7-0.2,16.2,1.9,16.6-1.3
	c0.6-3.3,22.5-60,25.3-66.6c2.8-6.7,15.1-52.9-0.1-95.3s-35.7-65.8-35.7-65.8c16.4,27.1,22.5,82,22.5,82L229.4,172
	c0,0,1.7,13.3,0.8,24.3c-0.7,10.8-3.7,20.8-4.6,21.2c-1.2,0.3-7.8-14.2-12-25.5c-1.9-5.2-2.7-12.8-6.1-17.2
	c-9-12-16.7-23.9-15.6-31.6c1-7.5,6.6-32.8,23.8-47.5c1.2-1,9.5-2.9,12.6,0.7C257,128,279.3,156.6,279.3,156.6L279.3,156.6z"/>
</svg>
